<svg width="121" height="21" viewBox="0 0 121 21" fill="none" xmlns="http://www.w3.org/2000/svg">
<path d="M0.492 0.511999H1.528V12.552C1.528 13.784 1.836 14.9227 2.452 15.968C3.068 17.0133 3.89867 17.844 4.944 18.46C5.98933 19.076 7.128 19.384 8.36 19.384C9.592 19.384 10.7307 19.076 11.776 18.46C12.8213 17.844 13.652 17.0133 14.268 15.968C14.884 14.9227 15.192 13.784 15.192 12.552V0.511999H16.228V12.552C16.228 13.9707 15.8733 15.2867 15.164 16.5C14.4547 17.6947 13.4933 18.6467 12.28 19.356C11.0853 20.0653 9.77867 20.42 8.36 20.42C6.94133 20.42 5.62533 20.0653 4.412 19.356C3.21733 18.6467 2.26533 17.6947 1.556 16.5C0.846667 15.2867 0.492 13.9707 0.492 12.552V0.511999ZM26.5386 17.872C26.5386 17.1813 26.7812 16.5933 27.2666 16.108C27.7706 15.604 28.3772 15.352 29.0866 15.352C29.7959 15.352 30.3932 15.604 30.8786 16.108C31.3826 16.5933 31.6346 17.1813 31.6346 17.872C31.6346 18.5627 31.3826 19.16 30.8786 19.664C30.3932 20.168 29.7959 20.42 29.0866 20.42C28.3959 20.42 27.7986 20.168 27.2946 19.664C26.7906 19.16 26.5386 18.5627 26.5386 17.872ZM43.1211 12.552C43.1211 13.784 43.4291 14.9227 44.0451 15.968C44.6798 17.0133 45.5198 17.844 46.5651 18.46C47.6291 19.076 48.7771 19.384 50.0091 19.384C51.2785 19.384 52.4265 19.132 53.4531 18.628C54.4798 18.124 55.2825 17.424 55.8611 16.528C56.4585 15.632 56.7665 14.624 56.7851 13.504H57.7931C57.7931 14.792 57.4478 15.968 56.7571 17.032C56.0851 18.0773 55.1518 18.908 53.9571 19.524C52.7811 20.1213 51.4651 20.42 50.0091 20.42C48.5905 20.42 47.2745 20.0653 46.0611 19.356C44.8478 18.6467 43.8865 17.6947 43.1771 16.5C42.4678 15.2867 42.1131 13.9707 42.1131 12.552V7.96C42.1131 6.54133 42.4585 5.23467 43.1491 4.04C43.8585 2.82667 44.8105 1.86533 46.0051 1.156C47.2185 0.446666 48.5345 0.0919993 49.9531 0.0919993C51.3905 0.0919993 52.6971 0.399999 53.8731 1.016C55.0678 1.61333 56.0105 2.444 56.7011 3.508C57.3918 4.55333 57.7371 5.72 57.7371 7.008H56.7291C56.7105 5.888 56.4025 4.88 55.8051 3.984C55.2078 3.088 54.3958 2.388 53.3691 1.884C52.3611 1.38 51.2225 1.128 49.9531 1.128C48.7211 1.128 47.5825 1.436 46.5371 2.052C45.4918 2.668 44.6611 3.49867 44.0451 4.544C43.4291 5.58933 43.1211 6.728 43.1211 7.96V12.552ZM78.4077 0.511999V1.548H71.0437V20H70.0357V1.548H62.6717V0.511999H78.4077ZM99.3303 20H84.3503V0.511999H91.9383C93.5623 0.511999 94.8876 0.801332 95.9143 1.38C96.9223 1.94 97.7063 2.70533 98.2663 3.676C98.8263 4.64667 99.1063 5.72 99.1063 6.896C99.1063 8.352 98.6583 9.65867 97.7623 10.816C96.8663 11.9547 95.7369 12.7107 94.3743 13.084L99.3303 20ZM86.1143 1.548L93.7303 12.188C94.9809 11.9267 96.0169 11.3013 96.8383 10.312C97.6596 9.32267 98.0703 8.184 98.0703 6.896C98.0703 5.86933 97.8183 4.936 97.3143 4.096C96.8103 3.256 96.1009 2.612 95.1863 2.164C94.3649 1.75333 93.2916 1.548 91.9663 1.548H86.1143ZM85.3863 2.22V12.272H92.5823L85.3863 2.22ZM85.3863 18.964H97.3702L93.2823 13.28L92.4143 13.308H85.3863V18.964ZM105.973 20V0.511999H107.009V18.964H120.589V20H105.973Z" fill="white"/>
</svg>
